<svg xmlns="http://www.w3.org/2000/svg" enable-background="new 0 0 50 50" viewBox="0 0 50 50"><path fill="#444445" d="M0.9836,9.16v25.4885h48.0328V9.16c0-1.193-0.9671-2.16-2.16-2.16H3.1436
			C1.9507,7,0.9836,7.9671,0.9836,9.16z"/><path fill="#C7C7C7" d="M0.9836,34.6485v2.592c0,1.4315,1.1605,2.592,2.592,2.592h42.8487c1.4315,0,2.592-1.1605,2.592-2.592
			v-2.592H0.9836z"/><rect width="42.849" height="22.464" x="3.576" y="9.592" fill="#59B1E3"/><path fill="#EFEFED" d="M33.2711,15.503c-0.44,0.24-0.85,0.55-1.22,0.9l-7.03-7.04l-7.04,7.04c-0.37-0.35-0.78-0.66-1.22-0.9
				l8.26-8.26L33.2711,15.503z"/><rect width="6.912" height="4.167" x="21.56" y="39.833" fill="#E4E4E3"/><path fill="#C7C7C7" d="M33.8488,49h-1.728v-2.4085c0-0.4763-0.3877-0.864-0.864-0.864H18.7754
				c-0.4763,0-0.864,0.3877-0.864,0.864V49h-1.728v-2.4085c0-1.4293,1.1627-2.592,2.592-2.592h12.4814
				c1.4293,0,2.592,1.1627,2.592,2.592V49z"/><circle cx="25.016" cy="8.307" r="7.306" fill="#EFEFED"/><circle cx="25.016" cy="8.307" r="5" fill="#E9715F"/><circle cx="13.238" cy="21.541" r="7" fill="#EFEFED"/><circle cx="36.794" cy="21.542" r="7" fill="#EFEFED"/><path fill="#FFF" d="M28.2977,8.9022l-4.1919,2.5521c-0.463,0.282-1.0584-0.0522-1.0584-0.5954V5.7547
			c0-0.5466,0.5954-0.8774,1.0584-0.5954l4.1919,2.5521C28.7434,7.983,28.7434,8.6306,28.2977,8.9022z"/><path fill="#FAD086" d="M17.459,19.879v3.325c0,0.4606-0.3769,0.8375-0.8375,0.8375H9.8543
				c-0.4606,0-0.8375-0.3769-0.8375-0.8375v-3.325c0-0.4606,0.3769-0.8375,0.8375-0.8375h6.7671
				C17.0821,19.0415,17.459,19.4184,17.459,19.879z"/><path fill="#FFCA67" d="M17.1658,23.8405c-0.1507,0.1256-0.335,0.201-0.5444,0.201H9.8543c-0.2094,0-0.3937-0.0754-0.5444-0.201
				l3.4589-2.3199c0.2848-0.1926,0.6533-0.1926,0.938,0L17.1658,23.8405z"/><path fill="#F5B948" d="M17.1826,19.2509l-3.4338,2.613c-0.3015,0.2261-0.7203,0.2261-1.0134,0l-3.4422-2.613
				c0.1507-0.1256,0.3434-0.2094,0.5611-0.2094h6.7671C16.8392,19.0415,17.0318,19.1253,17.1826,19.2509z"/><path fill="#83BD57" d="M40.9284,19.4v3.3716c0,0.4748-0.3837,0.8585-0.8585,0.8585h-5.9901l-0.8057,0.8057
			c-0.2254,0.2254-0.6139,0.0672-0.6139-0.2542V19.4c0-0.4748,0.3837-0.8585,0.8585-0.8585h6.5513
			C40.5447,18.5415,40.9284,18.9252,40.9284,19.4z"/><circle cx="34.539" cy="21.091" r=".75" fill="#FFF"/><circle cx="36.794" cy="21.091" r=".75" fill="#FFF"/><circle cx="39.05" cy="21.091" r=".75" fill="#FFF"/></svg>